# MagicaVoxel @ Ephtracy

# group
o 

# material
mtllib body.mtl
usemtl palette

# normals
vn -1 0 0
vn 1 0 0
vn 0 0 1
vn 0 0 -1
vn 0 -1 0
vn 0 1 0

# texcoords
vt 0.908203 0.5
vt 0.939453 0.5
vt 0.943359 0.5
vt 0.970703 0.5
vt 0.974609 0.5
vt 0.978516 0.5

# verts
v 0 0 0
v 0 0 -1.2
v 0 0.4 0
v 0 0.4 -1.2
v 0.7 0.1 -0.1
v 0.7 0.1 -1.1
v 0.7 0.3 -0.1
v 0.7 0.3 -1.1
v 0.1 0.1 -0.1
v 0.1 0.1 -1.1
v 0.1 0.3 -0.1
v 0.1 0.3 -1.1
v 0.8 0 0
v 0.8 0 -1.2
v 0.8 0.4 0
v 0.8 0.4 -1.2
v 0 0 0
v 0 0.4 0
v 0.2 0 0
v 0.2 0.1 0
v 0.2 0.4 0
v 0.3 0 0
v 0.3 0.1 0
v 0.3 0.3 0
v 0.4 0.3 0
v 0.4 0.4 0
v 0.5 0 0
v 0.5 0.1 0
v 0.5 0.3 0
v 0.5 0.4 0
v 0.6 0 0
v 0.6 0.1 0
v 0.6 0.4 0
v 0.8 0 0
v 0.8 0.4 0
v 0.1 0.1 -1.1
v 0.1 0.3 -1.1
v 0.2 0.1 -1.1
v 0.2 0.3 -1.1
v 0.5 0.1 -1.1
v 0.5 0.3 -1.1
v 0.6 0.1 -1.1
v 0.6 0.3 -1.1
v 0.7 0.1 -1.1
v 0.7 0.3 -1.1
v 0.1 0.1 -0.1
v 0.1 0.3 -0.1
v 0.2 0.1 -0.1
v 0.2 0.3 -0.1
v 0.3 0.1 -0.1
v 0.3 0.3 -0.1
v 0.5 0.1 -0.1
v 0.5 0.3 -0.1
v 0.6 0.1 -0.1
v 0.6 0.3 -0.1
v 0.7 0.1 -0.1
v 0.7 0.3 -0.1
v 0 0 -1.2
v 0 0.4 -1.2
v 0.2 0 -1.2
v 0.2 0.3 -1.2
v 0.5 0 -1.2
v 0.5 0.3 -1.2
v 0.6 0 -1.2
v 0.6 0.3 -1.2
v 0.8 0 -1.2
v 0.8 0.4 -1.2
v 0 0 0
v 0.2 0 0
v 0.3 0 0
v 0.5 0 0
v 0.6 0 0
v 0.8 0 0
v 0.2 0 -0.1
v 0.3 0 -0.1
v 0.5 0 -0.1
v 0.6 0 -0.1
v 0.2 0 -0.2
v 0.3 0 -0.2
v 0.5 0 -0.2
v 0.6 0 -0.2
v 0.3 0 -0.3
v 0.4 0 -0.3
v 0.2 0 -0.4
v 0.3 0 -0.4
v 0.4 0 -0.7
v 0.5 0 -0.7
v 0.5 0 -0.8
v 0.6 0 -0.8
v 0.2 0 -0.9
v 0.3 0 -0.9
v 0 0 -1.2
v 0.2 0 -1.2
v 0.5 0 -1.2
v 0.6 0 -1.2
v 0.8 0 -1.2
v 0.1 0.3 -0.1
v 0.2 0.3 -0.1
v 0.3 0.3 -0.1
v 0.5 0.3 -0.1
v 0.6 0.3 -0.1
v 0.7 0.3 -0.1
v 0.1 0.3 -1.1
v 0.2 0.3 -1.1
v 0.5 0.3 -1.1
v 0.6 0.3 -1.1
v 0.7 0.3 -1.1
v 0.1 0.1 -0.1
v 0.2 0.1 -0.1
v 0.3 0.1 -0.1
v 0.5 0.1 -0.1
v 0.6 0.1 -0.1
v 0.7 0.1 -0.1
v 0.2 0.1 -0.2
v 0.3 0.1 -0.2
v 0.5 0.1 -0.2
v 0.6 0.1 -0.2
v 0.3 0.1 -0.3
v 0.4 0.1 -0.3
v 0.2 0.1 -0.4
v 0.3 0.1 -0.4
v 0.4 0.1 -0.7
v 0.5 0.1 -0.7
v 0.5 0.1 -0.8
v 0.6 0.1 -0.8
v 0.2 0.1 -0.9
v 0.3 0.1 -0.9
v 0.1 0.1 -1.1
v 0.2 0.1 -1.1
v 0.5 0.1 -1.1
v 0.6 0.1 -1.1
v 0.7 0.1 -1.1
v 0 0.4 0
v 0.2 0.4 0
v 0.4 0.4 0
v 0.5 0.4 0
v 0.6 0.4 0
v 0.8 0.4 0
v 0.2 0.4 -0.1
v 0.4 0.4 -0.1
v 0.5 0.4 -0.1
v 0.6 0.4 -0.1
v 0 0.4 -1.2
v 0.8 0.4 -1.2

# faces
f 3/1/1 2/1/1 1/1/1
f 4/1/1 2/1/1 3/1/1
f 7/1/1 6/1/1 5/1/1
f 8/1/1 6/1/1 7/1/1
f 9/1/2 10/1/2 11/1/2
f 11/1/2 10/1/2 12/1/2
f 13/1/2 14/1/2 15/1/2
f 15/1/2 14/1/2 16/1/2
f 19/1/3 18/1/3 17/1/3
f 20/1/3 18/1/3 19/1/3
f 21/1/3 18/1/3 20/1/3
f 22/5/3 20/5/3 19/5/3
f 23/4/3 21/4/3 20/4/3
f 23/5/3 20/5/3 22/5/3
f 24/4/3 21/4/3 23/4/3
f 25/6/3 24/6/3 23/6/3
f 25/4/3 21/4/3 24/4/3
f 26/4/3 21/4/3 25/4/3
f 27/4/3 23/4/3 22/4/3
f 28/6/3 25/6/3 23/6/3
f 28/4/3 23/4/3 27/4/3
f 29/5/3 26/5/3 25/5/3
f 29/6/3 25/6/3 28/6/3
f 30/5/3 26/5/3 29/5/3
f 31/5/3 28/5/3 27/5/3
f 32/4/3 29/4/3 28/4/3
f 32/5/3 28/5/3 31/5/3
f 32/4/3 30/4/3 29/4/3
f 33/4/3 30/4/3 32/4/3
f 34/1/3 32/1/3 31/1/3
f 34/1/3 33/1/3 32/1/3
f 35/1/3 33/1/3 34/1/3
f 38/1/3 37/1/3 36/1/3
f 39/1/3 37/1/3 38/1/3
f 40/2/3 39/2/3 38/2/3
f 41/2/3 39/2/3 40/2/3
f 42/3/3 41/3/3 40/3/3
f 43/3/3 41/3/3 42/3/3
f 44/1/3 43/1/3 42/1/3
f 45/1/3 43/1/3 44/1/3
f 46/1/4 47/1/4 48/1/4
f 48/1/4 47/1/4 49/1/4
f 48/4/4 49/4/4 50/4/4
f 50/4/4 49/4/4 51/4/4
f 50/6/4 51/6/4 52/6/4
f 52/6/4 51/6/4 53/6/4
f 52/4/4 53/4/4 54/4/4
f 54/4/4 53/4/4 55/4/4
f 54/1/4 55/1/4 56/1/4
f 56/1/4 55/1/4 57/1/4
f 58/1/4 59/1/4 60/1/4
f 60/1/4 59/1/4 61/1/4
f 60/2/4 61/2/4 62/2/4
f 61/1/4 59/1/4 63/1/4
f 62/2/4 61/2/4 63/2/4
f 62/3/4 63/3/4 64/3/4
f 63/1/4 59/1/4 65/1/4
f 64/3/4 63/3/4 65/3/4
f 64/1/4 65/1/4 66/1/4
f 65/1/4 59/1/4 67/1/4
f 66/1/4 65/1/4 67/1/4
f 74/1/5 69/1/5 68/1/5
f 74/5/5 70/5/5 69/5/5
f 75/4/5 71/4/5 70/4/5
f 75/5/5 70/5/5 74/5/5
f 76/5/5 72/5/5 71/5/5
f 76/4/5 71/4/5 75/4/5
f 77/1/5 73/1/5 72/1/5
f 77/5/5 72/5/5 76/5/5
f 78/3/5 75/3/5 74/3/5
f 78/1/5 74/1/5 68/1/5
f 79/6/5 76/6/5 75/6/5
f 79/3/5 75/3/5 78/3/5
f 80/3/5 77/3/5 76/3/5
f 80/6/5 76/6/5 79/6/5
f 81/1/5 73/1/5 77/1/5
f 81/3/5 77/3/5 80/3/5
f 82/3/5 80/3/5 79/3/5
f 82/2/5 79/2/5 78/2/5
f 83/3/5 80/3/5 82/3/5
f 84/1/5 78/1/5 68/1/5
f 84/2/5 82/2/5 78/2/5
f 84/2/5 83/2/5 82/2/5
f 85/2/5 83/2/5 84/2/5
f 86/3/5 80/3/5 83/3/5
f 86/2/5 83/2/5 85/2/5
f 87/2/5 81/2/5 80/2/5
f 87/3/5 80/3/5 86/3/5
f 88/2/5 87/2/5 86/2/5
f 88/2/5 81/2/5 87/2/5
f 89/1/5 73/1/5 81/1/5
f 89/2/5 81/2/5 88/2/5
f 90/3/5 85/3/5 84/3/5
f 90/1/5 84/1/5 68/1/5
f 91/2/5 88/2/5 86/2/5
f 91/3/5 85/3/5 90/3/5
f 91/2/5 86/2/5 85/2/5
f 92/1/5 90/1/5 68/1/5
f 93/2/5 91/2/5 90/2/5
f 93/1/5 90/1/5 92/1/5
f 94/2/5 88/2/5 91/2/5
f 94/2/5 91/2/5 93/2/5
f 94/3/5 89/3/5 88/3/5
f 95/1/5 73/1/5 89/1/5
f 95/3/5 89/3/5 94/3/5
f 96/1/5 73/1/5 95/1/5
f 103/1/5 98/1/5 97/1/5
f 103/1/5 102/1/5 101/1/5
f 103/1/5 101/1/5 100/1/5
f 103/1/5 100/1/5 99/1/5
f 103/1/5 99/1/5 98/1/5
f 104/1/5 102/1/5 103/1/5
f 105/1/5 102/1/5 104/1/5
f 106/1/5 102/1/5 105/1/5
f 107/1/5 102/1/5 106/1/5
f 108/1/6 109/1/6 114/1/6
f 109/3/6 110/3/6 114/3/6
f 110/6/6 111/6/6 115/6/6
f 114/3/6 110/3/6 115/3/6
f 111/3/6 112/3/6 116/3/6
f 115/6/6 111/6/6 116/6/6
f 112/1/6 113/1/6 117/1/6
f 116/3/6 112/3/6 117/3/6
f 115/3/6 116/3/6 118/3/6
f 114/2/6 115/2/6 118/2/6
f 118/3/6 116/3/6 119/3/6
f 108/1/6 114/1/6 120/1/6
f 114/2/6 118/2/6 120/2/6
f 118/2/6 119/2/6 120/2/6
f 120/2/6 119/2/6 121/2/6
f 119/3/6 116/3/6 122/3/6
f 121/2/6 119/2/6 122/2/6
f 116/2/6 117/2/6 123/2/6
f 122/3/6 116/3/6 123/3/6
f 122/2/6 123/2/6 124/2/6
f 123/2/6 117/2/6 124/2/6
f 117/1/6 113/1/6 125/1/6
f 124/2/6 117/2/6 125/2/6
f 120/3/6 121/3/6 126/3/6
f 108/1/6 120/1/6 126/1/6
f 122/2/6 124/2/6 127/2/6
f 126/3/6 121/3/6 127/3/6
f 121/2/6 122/2/6 127/2/6
f 108/1/6 126/1/6 128/1/6
f 126/2/6 127/2/6 129/2/6
f 128/1/6 126/1/6 129/1/6
f 127/2/6 124/2/6 130/2/6
f 129/2/6 127/2/6 130/2/6
f 124/3/6 125/3/6 130/3/6
f 125/1/6 113/1/6 131/1/6
f 130/3/6 125/3/6 131/3/6
f 131/1/6 113/1/6 132/1/6
f 133/1/6 134/1/6 139/1/6
f 134/4/6 135/4/6 139/4/6
f 135/5/6 136/5/6 140/5/6
f 139/4/6 135/4/6 140/4/6
f 136/4/6 137/4/6 141/4/6
f 140/5/6 136/5/6 141/5/6
f 137/1/6 138/1/6 142/1/6
f 141/4/6 137/4/6 142/4/6
f 140/1/6 141/1/6 143/1/6
f 139/1/6 140/1/6 143/1/6
f 141/1/6 142/1/6 143/1/6
f 133/1/6 139/1/6 143/1/6
f 142/1/6 138/1/6 144/1/6
f 143/1/6 142/1/6 144/1/6
