# MagicaVoxel @ Ephtracy

# group
o 

# material
mtllib lefthand.mtl
usemtl palette

# normals
vn -1 0 0
vn 1 0 0
vn 0 0 1
vn 0 0 -1
vn 0 -1 0
vn 0 1 0

# texcoords
vt 0.908203 0.5
vt 0.970703 0.5
vt 0.974609 0.5
vt 0.978516 0.5
vt 0.982422 0.5
vt 0.986328 0.5
vt 0.990234 0.5

# verts
v 0 0 0
v 0 0 -0.5
v 0 0 -0.8
v 0 0 -0.9
v 0 0 -1.2
v 0 0.1 -0.6
v 0 0.1 -0.8
v 0 0.1 -0.9
v 0 0.1 -1.1
v 0 0.1 -1.2
v 0 0.2 -0.5
v 0 0.2 -0.6
v 0 0.2 -0.7
v 0 0.2 -0.8
v 0 0.2 -1.1
v 0 0.2 -1.2
v 0 0.3 -0.5
v 0 0.3 -0.7
v 0 0.3 -0.8
v 0 0.3 -0.9
v 0 0.3 -1.1
v 0 0.3 -1.2
v 0 0.4 0
v 0 0.4 -0.5
v 0 0.4 -0.8
v 0 0.4 -0.9
v 0 0.4 -1.1
v 0 0.4 -1.2
v 0.4 0 0
v 0.4 0 -0.5
v 0.4 0 -1.1
v 0.4 0 -1.2
v 0.4 0.1 -0.5
v 0.4 0.1 -1.1
v 0.4 0.1 -1.2
v 0.4 0.3 -0.5
v 0.4 0.3 -0.8
v 0.4 0.3 -0.9
v 0.4 0.3 -1.1
v 0.4 0.3 -1.2
v 0.4 0.4 0
v 0.4 0.4 -0.5
v 0.4 0.4 -0.8
v 0.4 0.4 -0.9
v 0.4 0.4 -1.1
v 0.4 0.4 -1.2
v 0 0 0
v 0 0.4 0
v 0.4 0 0
v 0.4 0.4 0
v 0 0 -1.2
v 0 0.1 -1.2
v 0 0.2 -1.2
v 0 0.3 -1.2
v 0 0.4 -1.2
v 0.1 0 -1.2
v 0.1 0.1 -1.2
v 0.1 0.2 -1.2
v 0.1 0.3 -1.2
v 0.1 0.4 -1.2
v 0.2 0 -1.2
v 0.2 0.1 -1.2
v 0.2 0.3 -1.2
v 0.2 0.4 -1.2
v 0.3 0 -1.2
v 0.3 0.1 -1.2
v 0.3 0.3 -1.2
v 0.3 0.4 -1.2
v 0.4 0 -1.2
v 0.4 0.1 -1.2
v 0.4 0.3 -1.2
v 0.4 0.4 -1.2
v 0 0 0
v 0.4 0 0
v 0 0 -0.5
v 0.2 0 -0.5
v 0.3 0 -0.5
v 0.4 0 -0.5
v 0.1 0 -0.6
v 0.2 0 -0.6
v 0.1 0 -0.7
v 0.2 0 -0.7
v 0 0 -0.8
v 0.2 0 -0.8
v 0.3 0 -0.8
v 0 0 -0.9
v 0.2 0 -0.9
v 0.3 0 -0.9
v 0.1 0 -1
v 0.2 0 -1
v 0.3 0 -1
v 0.1 0 -1.1
v 0.2 0 -1.1
v 0.3 0 -1.1
v 0.4 0 -1.1
v 0 0 -1.2
v 0.1 0 -1.2
v 0.2 0 -1.2
v 0.3 0 -1.2
v 0.4 0 -1.2
v 0 0.4 0
v 0.4 0.4 0
v 0 0.4 -0.5
v 0.2 0.4 -0.5
v 0.3 0.4 -0.5
v 0.4 0.4 -0.5
v 0.1 0.4 -0.6
v 0.2 0.4 -0.6
v 0.1 0.4 -0.7
v 0.2 0.4 -0.7
v 0 0.4 -0.8
v 0.1 0.4 -0.8
v 0.3 0.4 -0.8
v 0.4 0.4 -0.8
v 0 0.4 -0.9
v 0.1 0.4 -0.9
v 0.2 0.4 -0.9
v 0.4 0.4 -0.9
v 0.1 0.4 -1
v 0.2 0.4 -1
v 0.3 0.4 -1
v 0 0.4 -1.1
v 0.1 0.4 -1.1
v 0.2 0.4 -1.1
v 0.3 0.4 -1.1
v 0.4 0.4 -1.1
v 0 0.4 -1.2
v 0.1 0.4 -1.2
v 0.2 0.4 -1.2
v 0.3 0.4 -1.2
v 0.4 0.4 -1.2

# faces
f 6/4/1 3/4/1 2/4/1
f 7/2/1 4/2/1 3/2/1
f 7/4/1 3/4/1 6/4/1
f 8/4/1 5/4/1 4/4/1
f 8/2/1 4/2/1 7/2/1
f 9/4/1 5/4/1 8/4/1
f 10/4/1 5/4/1 9/4/1
f 11/1/1 2/1/1 1/1/1
f 11/4/1 6/4/1 2/4/1
f 12/5/1 7/5/1 6/5/1
f 12/4/1 6/4/1 11/4/1
f 13/5/1 7/5/1 12/5/1
f 14/3/1 8/3/1 7/3/1
f 14/5/1 7/5/1 13/5/1
f 14/3/1 9/3/1 8/3/1
f 15/7/1 10/7/1 9/7/1
f 15/3/1 9/3/1 14/3/1
f 16/7/1 10/7/1 15/7/1
f 17/1/1 11/1/1 1/1/1
f 17/5/1 13/5/1 12/5/1
f 17/5/1 12/5/1 11/5/1
f 18/3/1 14/3/1 13/3/1
f 18/5/1 13/5/1 17/5/1
f 18/3/1 16/3/1 15/3/1
f 18/3/1 15/3/1 14/3/1
f 19/3/1 16/3/1 18/3/1
f 20/3/1 16/3/1 19/3/1
f 21/3/1 16/3/1 20/3/1
f 22/3/1 16/3/1 21/3/1
f 23/1/1 17/1/1 1/1/1
f 24/3/1 18/3/1 17/3/1
f 24/1/1 17/1/1 23/1/1
f 24/3/1 19/3/1 18/3/1
f 25/2/1 20/2/1 19/2/1
f 25/3/1 19/3/1 24/3/1
f 26/3/1 21/3/1 20/3/1
f 26/2/1 20/2/1 25/2/1
f 27/7/1 22/7/1 21/7/1
f 27/3/1 21/3/1 26/3/1
f 28/7/1 22/7/1 27/7/1
f 29/1/2 30/1/2 33/1/2
f 30/3/2 31/3/2 33/3/2
f 31/4/2 32/4/2 34/4/2
f 33/3/2 31/3/2 34/3/2
f 34/4/2 32/4/2 35/4/2
f 29/1/2 33/1/2 36/1/2
f 33/2/2 34/2/2 36/2/2
f 34/2/2 35/2/2 36/2/2
f 36/2/2 35/2/2 37/2/2
f 37/2/2 35/2/2 38/2/2
f 38/2/2 35/2/2 39/2/2
f 39/2/2 35/2/2 40/2/2
f 29/1/2 36/1/2 41/1/2
f 36/3/2 37/3/2 42/3/2
f 41/1/2 36/1/2 42/1/2
f 37/2/2 38/2/2 43/2/2
f 42/3/2 37/3/2 43/3/2
f 38/3/2 39/3/2 44/3/2
f 43/2/2 38/2/2 44/2/2
f 39/4/2 40/4/2 45/4/2
f 44/3/2 39/3/2 45/3/2
f 45/4/2 40/4/2 46/4/2
f 49/1/3 48/1/3 47/1/3
f 50/1/3 48/1/3 49/1/3
f 51/4/4 52/4/4 56/4/4
f 52/7/4 53/7/4 57/7/4
f 56/4/4 52/4/4 57/4/4
f 53/3/4 54/3/4 58/3/4
f 57/7/4 53/7/4 58/7/4
f 54/7/4 55/7/4 59/7/4
f 58/3/4 54/3/4 59/3/4
f 59/7/4 55/7/4 60/7/4
f 56/2/4 57/2/4 61/2/4
f 57/5/4 58/5/4 62/5/4
f 61/2/4 57/2/4 62/2/4
f 58/5/4 59/5/4 62/5/4
f 59/3/4 60/3/4 63/3/4
f 62/5/4 59/5/4 63/5/4
f 63/3/4 60/3/4 64/3/4
f 61/7/4 62/7/4 65/7/4
f 62/4/4 63/4/4 66/4/4
f 65/7/4 62/7/4 66/7/4
f 63/7/4 64/7/4 67/7/4
f 66/4/4 63/4/4 67/4/4
f 67/7/4 64/7/4 68/7/4
f 65/4/4 66/4/4 69/4/4
f 66/2/4 67/2/4 70/2/4
f 69/4/4 66/4/4 70/4/4
f 67/4/4 68/4/4 71/4/4
f 70/2/4 67/2/4 71/2/4
f 71/4/4 68/4/4 72/4/4
f 75/1/5 74/1/5 73/1/5
f 76/1/5 74/1/5 75/1/5
f 77/1/5 74/1/5 76/1/5
f 78/1/5 74/1/5 77/1/5
f 79/4/5 76/4/5 75/4/5
f 80/2/5 77/2/5 76/2/5
f 80/4/5 76/4/5 79/4/5
f 81/4/5 79/4/5 75/4/5
f 81/5/5 80/5/5 79/5/5
f 82/2/5 77/2/5 80/2/5
f 82/5/5 80/5/5 81/5/5
f 83/4/5 81/4/5 75/4/5
f 83/4/5 82/4/5 81/4/5
f 84/2/5 77/2/5 82/2/5
f 84/4/5 82/4/5 83/4/5
f 85/3/5 78/3/5 77/3/5
f 85/2/5 77/2/5 84/2/5
f 86/2/5 84/2/5 83/2/5
f 87/3/5 85/3/5 84/3/5
f 87/2/5 84/2/5 86/2/5
f 88/3/5 78/3/5 85/3/5
f 88/3/5 85/3/5 87/3/5
f 89/4/5 87/4/5 86/4/5
f 90/2/5 88/2/5 87/2/5
f 90/4/5 87/4/5 89/4/5
f 91/3/5 78/3/5 88/3/5
f 91/2/5 88/2/5 90/2/5
f 92/6/5 90/6/5 89/6/5
f 92/4/5 89/4/5 86/4/5
f 93/7/5 91/7/5 90/7/5
f 93/6/5 90/6/5 92/6/5
f 94/3/5 78/3/5 91/3/5
f 94/7/5 91/7/5 93/7/5
f 95/3/5 78/3/5 94/3/5
f 96/4/5 92/4/5 86/4/5
f 97/2/5 93/2/5 92/2/5
f 97/4/5 92/4/5 96/4/5
f 98/7/5 94/7/5 93/7/5
f 98/2/5 93/2/5 97/2/5
f 99/4/5 95/4/5 94/4/5
f 99/7/5 94/7/5 98/7/5
f 100/4/5 95/4/5 99/4/5
f 101/1/6 102/1/6 103/1/6
f 103/1/6 102/1/6 104/1/6
f 104/1/6 102/1/6 105/1/6
f 105/1/6 102/1/6 106/1/6
f 103/3/6 104/3/6 107/3/6
f 104/2/6 105/2/6 108/2/6
f 107/3/6 104/3/6 108/3/6
f 103/3/6 107/3/6 109/3/6
f 107/5/6 108/5/6 109/5/6
f 108/2/6 105/2/6 110/2/6
f 109/5/6 108/5/6 110/5/6
f 103/3/6 109/3/6 111/3/6
f 109/3/6 110/3/6 111/3/6
f 111/3/6 110/3/6 112/3/6
f 110/2/6 105/2/6 113/2/6
f 105/3/6 106/3/6 113/3/6
f 113/3/6 106/3/6 114/3/6
f 111/2/6 112/2/6 115/2/6
f 112/3/6 110/3/6 116/3/6
f 115/2/6 112/2/6 116/2/6
f 110/2/6 113/2/6 117/2/6
f 116/3/6 110/3/6 117/3/6
f 113/2/6 114/2/6 117/2/6
f 117/2/6 114/2/6 118/2/6
f 115/3/6 116/3/6 119/3/6
f 116/2/6 117/2/6 119/2/6
f 117/3/6 118/3/6 120/3/6
f 119/2/6 117/2/6 120/2/6
f 120/3/6 118/3/6 121/3/6
f 115/3/6 119/3/6 122/3/6
f 119/6/6 120/6/6 123/6/6
f 122/3/6 119/3/6 123/3/6
f 120/7/6 121/7/6 124/7/6
f 123/6/6 120/6/6 124/6/6
f 121/3/6 118/3/6 125/3/6
f 124/7/6 121/7/6 125/7/6
f 125/3/6 118/3/6 126/3/6
f 122/7/6 123/7/6 127/7/6
f 123/3/6 124/3/6 128/3/6
f 127/7/6 123/7/6 128/7/6
f 124/7/6 125/7/6 129/7/6
f 128/3/6 124/3/6 129/3/6
f 125/4/6 126/4/6 130/4/6
f 129/7/6 125/7/6 130/7/6
f 130/4/6 126/4/6 131/4/6
